<svg height="511.99949pt" viewBox="1 1 511.99949 511.99949" width="511.99949pt" xmlns="http://www.w3.org/2000/svg"><path d="m496.285156 428.039062-28.871094 28.871094c-20.109374 20.109375-44.179687 33.824219-69.699218 41.160156-54.804688 15.734376-116.28125 2.015626-159.445313-41.160156l-183.179687-183.179687c-63.285156-63.273438-63.285156-165.871094 0-229.144531l28.871094-28.871094c10.808593-10.808594 28.335937-10.808594 39.148437 0l75.390625 75.378906c10.808594 10.8125 10.808594 28.339844 0 39.148438l-28.871094 28.882812-8.722656 8.710938c-19.453125 19.453124-19.453125 51.003906 0 70.457031l112.796875 112.800781c19.457031 19.453125 51.003906 19.453125 70.460937 0l8.71875-8.710938 28.871094-28.882812c10.8125-10.8125 28.339844-10.8125 39.148438 0l75.378906 75.390625c10.8125 10.808594 10.8125 28.339844.003906 39.148437zm0 0" fill="#565475"/><path d="m397.714844 498.074219c-54.804688 15.730469-116.28125 2.011719-159.445313-41.164063l-183.179687-183.179687c-63.285156-63.273438-63.285156-165.871094 0-229.144531l24.234375-24.234376 11.691406 60.160157c-28.4375 28.4375-59.269531 121.691406 10.941406 191.914062 70.21875 70.21875 145.335938 145.335938 165.75 165.738281 15.292969 15.296876 74.039063 63.957032 130.007813 59.910157zm0 0" fill="#2f2d50"/><path d="m198.5 130.242188-28.871094 28.882812-114.539062-114.539062 28.871094-28.871094c10.808593-10.808594 28.335937-10.808594 39.148437 0l35.925781 35.925781 39.5625 39.554687c10.710938 10.820313 10.679688 28.269532-.097656 39.046876zm0 0" fill="#d6d3c4"/><path d="m198.5 130.242188-28.871094 28.882812-78.613281-78.613281 28.871094-28.871094c10.808593-10.808594 28.335937-10.808594 39.148437 0l39.5625 39.554687c10.710938 10.820313 10.679688 28.269532-.097656 39.046876zm0 0" fill="#fbf2dc"/><path d="m496.285156 428.039062-28.871094 28.871094-114.53125-114.527344 28.871094-28.882812c10.8125-10.8125 28.339844-10.8125 39.148438 0l75.378906 75.390625c10.8125 10.808594 10.8125 28.339844.003906 39.148437zm0 0" fill="#d6d3c4"/><path d="m496.285156 428.03125-28.871094 28.882812-78.613281-78.613281 28.871094-28.871093c10.808594-10.808594 28.335937-10.808594 39.148437 0l39.5625 39.554687c10.710938 10.820313 10.679688 28.269531-.097656 39.046875zm0 0" fill="#fbf2dc"/><path d="m483.101562 114.949219-84.0625-84.0625-107.273437 107.269531-26.371094-26.371094-4.910156 141.71875 141.71875-4.914062-26.371094-26.371094zm0 0" fill="#86f2c6"/><path d="m501.675781 383.5-75.382812-75.390625c-6.667969-6.667969-15.53125-10.339844-24.964844-10.339844-9.429687 0-18.296875 3.671875-24.96875 10.339844l-37.589844 37.589844c-7.96875 7.96875-18.566406 12.359375-29.835937 12.359375-11.273438 0-21.871094-4.386719-29.839844-12.359375l-112.796875-112.796875c-16.453125-16.453125-16.453125-43.222656-.003906-59.671875l37.597656-37.59375c6.667969-6.667969 10.339844-15.535157 10.339844-24.96875 0-9.429688-3.671875-18.292969-10.34375-24.964844l-75.386719-75.378906c-13.769531-13.765625-36.164062-13.765625-49.933594 0l-28.867187 28.871093c-32.046875 32.042969-49.699219 74.644532-49.699219 119.964844 0 45.316406 17.648438 87.917969 49.695312 119.960938l113.585938 113.585937c2.976562 2.976563 7.804688 2.976563 10.78125 0 2.976562-2.976562 2.976562-7.804687 0-10.78125l-113.585938-113.585937c-29.164062-29.164063-45.230468-67.9375-45.230468-109.179688 0-38.695312 14.140625-75.210937 39.96875-103.660156l103.625 103.625-3.324219 3.320312c-22.398437 22.398438-22.398437 58.84375 0 81.242188l112.796875 112.796875c10.851562 10.847656 25.277344 16.824219 40.621094 16.824219 15.347656 0 29.769531-5.976563 40.617187-16.820313l3.324219-3.328125 103.605469 103.605469c-17.449219 15.804687-38.339844 27.5-60.871094 33.980469-54.03125 15.507812-112.257813.480468-151.949219-39.226563l-44.183594-44.183593c-2.980468-2.976563-7.804687-2.976563-10.78125 0-2.976562 2.980468-2.976562 7.804687 0 10.78125l44.183594 44.183593c32.257813 32.265625 75.640625 49.703125 120.066406 49.699219 15.640626 0 31.417969-2.164062 46.875-6.601562 27.441407-7.886719 52.675782-22.792969 72.984376-43.097657l28.871093-28.871093c13.765625-13.765626 13.765625-36.164063 0-49.929688zm-435.808593-338.910156 23.484374-23.484375c7.820313-7.820313 20.546876-7.820313 28.367188 0l75.386719 75.378906c3.792969 3.789063 5.875 8.828125 5.875 14.183594 0 5.359375-2.085938 10.398437-5.875 14.1875l-23.484375 23.484375zm425.023437 378.058594-23.480469 23.480468-103.75-103.75 23.484375-23.488281c3.789063-3.789063 8.828125-5.875 14.183594-5.875 5.359375 0 10.398437 2.089844 14.183594 5.875l75.378906 75.390625c3.789063 3.789062 5.875 8.828125 5.875 14.183594 0 5.359375-2.085937 10.394531-5.875 14.183594zm0 0"/><path d="m260.484375 261.128906c.085937 0 .175781-.003906.261719-.003906l141.71875-4.914062c3.035156-.105469 5.714844-2 6.828125-4.824219s.445312-6.039063-1.699219-8.1875l-20.980469-20.980469 101.878907-101.878906c2.976562-2.980469 2.976562-7.804688 0-10.78125l-84.0625-84.066406c-1.429688-1.429688-3.367188-2.230469-5.390626-2.230469-2.023437 0-3.960937.800781-5.394531 2.230469l-45.601562 45.605468c-2.976563 2.976563-2.976563 7.804688 0 10.78125 2.976562 2.976563 7.804687 2.976563 10.78125 0l40.214843-40.214844 73.28125 73.28125-101.882812 101.882813c-2.976562 2.976563-2.976562 7.804687 0 10.78125l13.96875 13.96875-116.019531 4.023437 4.019531-116.023437 13.96875 13.96875c1.429688 1.429687 3.367188 2.234375 5.390625 2.234375s3.960937-.804688 5.394531-2.234375l39.300782-39.304687c2.976562-2.976563 2.976562-7.804688 0-10.78125-2.980469-2.976563-7.804688-2.976563-10.78125 0l-33.910157 33.914062-20.984375-20.980469c-2.144531-2.148437-5.359375-2.816406-8.183594-1.703125-2.824218 1.113282-4.71875 3.792969-4.824218 6.828125l-4.914063 141.71875c-.070312 2.113281.734375 4.160157 2.226563 5.65625 1.433594 1.433594 3.375 2.234375 5.394531 2.234375zm0 0"/></svg>