<?xml version="1.0" encoding="utf-8"?>
<!-- Generator: Adobe Illustrator 22.1.0, SVG Export Plug-In . SVG Version: 6.00 Build 0)  -->
<svg xmlns="http://www.w3.org/2000/svg" xmlns:xlink="http://www.w3.org/1999/xlink" version="1.1" id="Layer_1" x="0px" y="0px" viewBox="0 0 256 256" style="enable-background:new 0 0 256 256;" xml:space="preserve" width="512" height="512">
<style type="text/css">
	.st0{fill:#F9CFCF;}
	.st1{fill:#3762CC;}
	.st2{fill:#6BDDDD;}
	.st3{fill:#E0EBFC;}
	.st4{fill:#EAA97D;}
	.st5{fill:#A4C9FF;}
	.st6{fill:#F9A7A7;}
	.st7{fill:#4671C6;}
	.st8{fill:#FFEA92;}
	.st9{fill:#B9BEFC;}
	.st10{fill:#3962CA;}
	.st11{fill:#DDA073;}
</style>
<g>
	<g>
		<path class="st0" d="M209.215,32.925H57.491h-7.276c-14.068,0-25.618,10.761-26.88,24.5h-0.076h-0.044v131.5    c0,14.912,12.088,27,27,27h159c3.314,0,6-2.686,6-6v-171C215.215,35.611,212.529,32.925,209.215,32.925z"/>
	</g>
	<g>
		<path class="st5" d="M149.215,191.425h-99v-134h99c5.523,0,10,4.477,10,10v114C159.215,186.948,154.738,191.425,149.215,191.425z"/>
	</g>
	<g>
		<g>
			<path class="st0" d="M77.096,57.425c-1.262-13.739-12.812-24.5-26.88-24.5s-25.618,10.761-26.88,24.5h-0.12v131.5     c0-14.912,12.088-27,27-27c14.912,0,27,12.088,27,27v-131.5H77.096z"/>
		</g>
	</g>
	<g>
		<circle class="st0" cx="50.215" cy="188.925" r="27"/>
	</g>
	<g>
		<path class="st6" d="M209.215,32.925h-30v183h30c3.314,0,6-2.686,6-6v-171C215.215,35.611,212.529,32.925,209.215,32.925z"/>
	</g>
	<g>
		<path class="st1" d="M50.215,217.925c-15.991,0-29-13.009-29-29s13.009-29,29-29s29,13.009,29,29S66.206,217.925,50.215,217.925z     M50.215,163.925c-13.785,0-25,11.215-25,25s11.215,25,25,25s25-11.215,25-25S64,163.925,50.215,163.925z"/>
	</g>
	<g>
		<circle class="st6" cx="50.215" cy="188.925" r="27"/>
	</g>
	<g>
		<circle class="st0" cx="50.215" cy="188.925" r="21"/>
	</g>
	<g>
		<circle class="st6" cx="50.215" cy="188.925" r="15"/>
	</g>
	<g>
		<circle class="st0" cx="50.215" cy="188.925" r="9"/>
	</g>
	<g>
		<path class="st1" d="M50.215,217.925c-15.991,0-29-13.009-29-29s13.009-29,29-29s29,13.009,29,29S66.206,217.925,50.215,217.925z     M50.215,163.925c-13.785,0-25,11.215-25,25s11.215,25,25,25s25-11.215,25-25S64,163.925,50.215,163.925z"/>
	</g>
	<g>
		<path class="st5" d="M238.215,199.925h-23v10h23c2.761,0,5-2.239,5-5C243.215,202.164,240.977,199.925,238.215,199.925z"/>
	</g>
	<g>
		<path class="st1" d="M50.215,217.925c-15.991,0-29-13.009-29-29v-131.5c0-0.313,0.072-0.608,0.199-0.872    c1.689-14.659,13.951-25.628,28.801-25.628s27.111,10.97,28.801,25.628c0.127,0.264,0.199,0.559,0.199,0.872v131.5    C79.215,204.916,66.206,217.925,50.215,217.925z M25.215,58.107v130.818c0,13.785,11.215,25,25,25s25-11.215,25-25V58.107    c-0.057-0.158-0.095-0.325-0.111-0.499c-1.188-12.932-11.888-22.683-24.889-22.683s-23.701,9.751-24.889,22.683    C25.311,57.782,25.272,57.949,25.215,58.107z"/>
	</g>
	<g>
		<path class="st5" d="M238.215,179.925h-23v10h23c2.761,0,5-2.239,5-5C243.215,182.164,240.977,179.925,238.215,179.925z"/>
	</g>
	<g>
		<path class="st5" d="M238.215,159.925h-23v10h23c2.761,0,5-2.239,5-5C243.215,162.164,240.977,159.925,238.215,159.925z"/>
	</g>
	<g>
		<path class="st5" d="M238.215,139.925h-23v10h23c2.761,0,5-2.239,5-5C243.215,142.164,240.977,139.925,238.215,139.925z"/>
	</g>
	<g>
		<path class="st5" d="M238.215,119.925h-23v10h23c2.761,0,5-2.239,5-5C243.215,122.164,240.977,119.925,238.215,119.925z"/>
	</g>
	<g>
		<path class="st5" d="M238.215,99.925h-23v10h23c2.761,0,5-2.239,5-5C243.215,102.164,240.977,99.925,238.215,99.925z"/>
	</g>
	<g>
		<path class="st5" d="M238.215,79.925h-23v10h23c2.761,0,5-2.239,5-5C243.215,82.164,240.977,79.925,238.215,79.925z"/>
	</g>
	<g>
		<path class="st5" d="M238.215,59.925h-23v10h23c2.761,0,5-2.239,5-5C243.215,62.164,240.977,59.925,238.215,59.925z"/>
	</g>
	<g>
		<path class="st5" d="M238.215,39.925h-23v10h23c2.761,0,5-2.239,5-5C243.215,42.164,240.977,39.925,238.215,39.925z"/>
	</g>
	<g>
		<path class="st1" d="M238.215,51.925h-23c-1.104,0-2-0.896-2-2v-10c0-1.104,0.896-2,2-2h23c3.86,0,7,3.14,7,7    S242.075,51.925,238.215,51.925z M217.215,47.925h21c1.654,0,3-1.346,3-3s-1.346-3-3-3h-21V47.925z"/>
	</g>
	<g>
		<path class="st1" d="M238.215,71.925h-23c-1.104,0-2-0.896-2-2v-10c0-1.104,0.896-2,2-2h23c3.86,0,7,3.14,7,7    S242.075,71.925,238.215,71.925z M217.215,67.925h21c1.654,0,3-1.346,3-3s-1.346-3-3-3h-21V67.925z"/>
	</g>
	<g>
		<path class="st1" d="M238.215,91.925h-23c-1.104,0-2-0.896-2-2v-10c0-1.104,0.896-2,2-2h23c3.86,0,7,3.14,7,7    S242.075,91.925,238.215,91.925z M217.215,87.925h21c1.654,0,3-1.346,3-3s-1.346-3-3-3h-21V87.925z"/>
	</g>
	<g>
		<path class="st1" d="M238.215,111.925h-23c-1.104,0-2-0.896-2-2v-10c0-1.104,0.896-2,2-2h23c3.86,0,7,3.14,7,7    S242.075,111.925,238.215,111.925z M217.215,107.925h21c1.654,0,3-1.346,3-3s-1.346-3-3-3h-21V107.925z"/>
	</g>
	<g>
		<path class="st1" d="M238.215,131.925h-23c-1.104,0-2-0.896-2-2v-10c0-1.104,0.896-2,2-2h23c3.86,0,7,3.14,7,7    S242.075,131.925,238.215,131.925z M217.215,127.925h21c1.654,0,3-1.346,3-3s-1.346-3-3-3h-21V127.925z"/>
	</g>
	<g>
		<path class="st1" d="M238.215,151.925h-23c-1.104,0-2-0.896-2-2v-10c0-1.104,0.896-2,2-2h23c3.86,0,7,3.14,7,7    S242.075,151.925,238.215,151.925z M217.215,147.925h21c1.654,0,3-1.346,3-3s-1.346-3-3-3h-21V147.925z"/>
	</g>
	<g>
		<path class="st1" d="M238.215,171.925h-23c-1.104,0-2-0.896-2-2v-10c0-1.104,0.896-2,2-2h23c3.86,0,7,3.14,7,7    S242.075,171.925,238.215,171.925z M217.215,167.925h21c1.654,0,3-1.346,3-3s-1.346-3-3-3h-21V167.925z"/>
	</g>
	<g>
		<path class="st1" d="M238.215,191.925h-23c-1.104,0-2-0.896-2-2v-10c0-1.104,0.896-2,2-2h23c3.86,0,7,3.14,7,7    S242.075,191.925,238.215,191.925z M217.215,187.925h21c1.654,0,3-1.346,3-3s-1.346-3-3-3h-21V187.925z"/>
	</g>
	<g>
		<path class="st1" d="M238.215,211.925h-23c-1.104,0-2-0.896-2-2v-10c0-1.104,0.896-2,2-2h23c3.86,0,7,3.14,7,7    S242.075,211.925,238.215,211.925z M217.215,207.925h21c1.654,0,3-1.346,3-3s-1.346-3-3-3h-21V207.925z"/>
	</g>
	<g>
		<path class="st1" d="M209.215,217.925h-159c-15.991,0-29-13.009-29-29v-131.5c0-0.313,0.072-0.608,0.199-0.872    c1.689-14.659,13.951-25.628,28.801-25.628h159c4.411,0,8,3.589,8,8v171C217.215,214.336,213.626,217.925,209.215,217.925z     M25.215,58.107v130.818c0,13.785,11.215,25,25,25h159c2.206,0,4-1.794,4-4v-171c0-2.206-1.794-4-4-4h-159    c-13.001,0-23.701,9.751-24.889,22.683C25.311,57.782,25.272,57.949,25.215,58.107z"/>
	</g>
	<g>
		<path class="st6" d="M129.315,197.45v14.967c0,1.878,1.522,3.4,3.4,3.4h17c1.878,0,3.4-1.522,3.4-3.4V197.45H129.315z"/>
	</g>
	<g>
		<path class="st1" d="M149.715,217.817h-17c-2.978,0-5.4-2.422-5.4-5.4V197.45c0-1.104,0.896-2,2-2h23.8c1.104,0,2,0.896,2,2    v14.967C155.115,215.395,152.693,217.817,149.715,217.817z M131.315,199.45v12.967c0,0.772,0.628,1.4,1.4,1.4h17    c0.772,0,1.4-0.628,1.4-1.4V199.45H131.315z"/>
	</g>
	<g>
		<rect x="134.415" y="215.818" class="st3" width="13.6" height="32.107"/>
	</g>
	<g>
		<path class="st1" d="M148.015,249.925h-13.6c-1.104,0-2-0.896-2-2v-32.107c0-1.104,0.896-2,2-2h13.6c1.104,0,2,0.896,2,2v32.107    C150.015,249.029,149.12,249.925,148.015,249.925z M136.416,245.925h9.6v-28.107h-9.6V245.925z"/>
	</g>
	<g>
		<path class="st2" d="M189.112,147.242H93.318c-3.591,0-6.503-2.911-6.503-6.503v-7.394c0-3.591,2.911-6.503,6.503-6.503h95.794    c3.591,0,6.503,2.911,6.503,6.503v7.394C195.615,144.331,192.704,147.242,189.112,147.242z"/>
	</g>
	<g>
		<path class="st1" d="M189.112,149.242H93.318c-4.688,0-8.503-3.814-8.503-8.503v-7.394c0-4.688,3.814-8.503,8.503-8.503h95.794    c4.688,0,8.503,3.814,8.503,8.503v7.394C197.615,145.428,193.801,149.242,189.112,149.242z M93.318,128.842    c-2.483,0-4.503,2.02-4.503,4.503v7.394c0,2.483,2.02,4.503,4.503,4.503h95.794c2.483,0,4.503-2.02,4.503-4.503v-7.394    c0-2.483-2.02-4.503-4.503-4.503H93.318z"/>
	</g>
	<g>
		<path class="st9" d="M141.215,138.923h-35.7c-1.878,0-3.4,1.522-3.4,3.4v6.98c0,1.307,0.377,2.586,1.085,3.685l12.852,19.935    l7.738,13.239h17.425h17.425l7.738-13.239l12.852-19.935c0.708-1.098,1.085-2.378,1.085-3.685v-6.98c0-1.878-1.522-3.4-3.4-3.4    H141.215z"/>
	</g>
	<g>
		<path class="st1" d="M158.64,188.162h-34.85c-0.711,0-1.368-0.377-1.727-0.991l-7.739-13.239l-12.806-19.861    c-0.918-1.424-1.404-3.073-1.404-4.768v-6.98c0-2.978,2.422-5.4,5.4-5.4h71.4c2.978,0,5.4,2.422,5.4,5.4v6.98    c0,1.696-0.486,3.345-1.404,4.769l-12.851,19.934l-7.693,13.165C160.008,187.785,159.351,188.162,158.64,188.162z     M124.938,184.162h32.555l7.16-12.249l12.897-20.009c0.501-0.777,0.766-1.676,0.766-2.601v-6.98c0-0.772-0.628-1.4-1.4-1.4h-71.4    c-0.772,0-1.4,0.628-1.4,1.4v6.98c0,0.924,0.265,1.824,0.766,2.601l12.852,19.936L124.938,184.162z"/>
	</g>
	<g>
		<path class="st9" d="M158.57,197.45h-34.708c-1.878,0-3.4-1.522-3.4-3.4v-4.488c0-1.878,1.522-3.4,3.4-3.4h34.708    c1.878,0,3.4,1.522,3.4,3.4v4.488C161.97,195.928,160.447,197.45,158.57,197.45z"/>
	</g>
	<g>
		<path class="st1" d="M158.569,199.45h-34.708c-2.978,0-5.4-2.422-5.4-5.4v-4.488c0-2.978,2.422-5.4,5.4-5.4h34.708    c2.978,0,5.4,2.422,5.4,5.4v4.488C163.97,197.028,161.547,199.45,158.569,199.45z M123.861,188.162c-0.772,0-1.4,0.628-1.4,1.4    v4.488c0,0.772,0.628,1.4,1.4,1.4h34.708c0.772,0,1.4-0.628,1.4-1.4v-4.488c0-0.772-0.628-1.4-1.4-1.4H123.861z"/>
	</g>
	<g>
		<path class="st8" d="M29.649,31.154c-3.372,7.369-8.965,13.508-15.927,17.565c-1.249,0.728-1.249,2.494,0,3.221    c6.962,4.056,12.555,10.196,15.927,17.565c0.655,1.432,2.695,1.432,3.351,0c3.372-7.369,8.965-13.509,15.927-17.565    c1.249-0.728,1.249-2.494,0-3.221c-6.962-4.057-12.555-10.196-15.927-17.565C32.344,29.722,30.304,29.722,29.649,31.154z"/>
	</g>
	<g>
		<path class="st8" d="M55.111,8.827c-2.36,5.158-6.276,9.456-11.149,12.296c-0.874,0.509-0.874,1.746,0,2.255    c4.873,2.839,8.789,7.137,11.149,12.296c0.459,1.002,1.887,1.002,2.345,0c2.36-5.159,6.275-9.456,11.149-12.296    c0.874-0.509,0.874-1.745,0-2.255c-4.874-2.84-8.789-7.137-11.149-12.296C56.998,7.824,55.57,7.824,55.111,8.827z"/>
	</g>
</g>
</svg>
