<?xml version="1.0"?>
<svg xmlns="http://www.w3.org/2000/svg" viewBox="0 0 64 64" width="512" height="512"><g id="Brick_wall-repair-construction" data-name="Brick wall-repair-construction"><polygon points="61 31 61 39 50 39 49.8 39.05 47.96 31.01 48 31 61 31" style="fill:#ffda44"/><polygon points="61 15 61 23 53 23 52 23 52 15 61 15" style="fill:#ffda44"/><polygon points="42 7 42 15 32 15 26 15 23 15 23 7 42 7" style="fill:#ffda44"/><path d="M44.12,47H35.88a5.994,5.994,0,0,1-5.94-6.82l4-17.51A6,6,0,0,1,39.79,18h.42a6,6,0,0,1,5.85,4.67l.08.33,3.92,17.18A5.994,5.994,0,0,1,44.12,47Z" style="fill:#d8d7da"/><path d="M40.21,18h-.42a6,6,0,0,0-5.85,4.67L30.2,39.05,30,39H3V15H52v8H46.14l-.08-.33A6,6,0,0,0,40.21,18Z" style="fill:#ee8700"/><polygon points="61 9.85 61 15 52 15 51 15 42 15 42 7 61 7 61 9.85" style="fill:#ff5023"/><polygon points="61 31 48 31 47.96 31.01 46.14 23 52 23 53 23 61 23 61 31" style="fill:#ff5023"/><rect x="3" y="7" width="20" height="8" style="fill:#ff5023"/><path d="M43,58a3,3,0,0,1-6,0V43a3,3,0,0,1,6,0Z" style="fill:#957856"/><path d="M61,6H3A1,1,0,0,0,2,7V39a1,1,0,0,0,1,1H28.959l-.01.043A6.994,6.994,0,0,0,35.88,48H36V58a4,4,0,0,0,8,0V48h.12a6.986,6.986,0,0,0,6.919-8H61a1,1,0,0,0,1-1V7A1,1,0,0,0,61,6ZM24,14V8H41v6ZM4,8H22v6H4ZM29.415,38H4V16H25v2a1,1,0,0,0,1,1h4a1,1,0,0,1,0,2H28v2h2a3,3,0,0,0,0-6H27V16H51v6H46.893a6.944,6.944,0,0,0-6.683-5h-.42a6.962,6.962,0,0,0-6.825,5.447ZM60,16v6H53V16Zm0,14H48.76l-1.37-6H60ZM42,58a2,2,0,0,1-4,0V43a2,2,0,0,1,4,0Zm5.889-13.714A5,5,0,0,1,44.12,46H44V43a4,4,0,0,0-3-3.858v-5.42a2,2,0,1,0-2,0v5.42A4,4,0,0,0,36,43v3h-.12a5,5,0,0,1-4.965-5.6l4-17.51A4.974,4.974,0,0,1,39.79,19h.42a4.974,4.974,0,0,1,4.875,3.893l3.984,17.423A5,5,0,0,1,47.889,44.286ZM50.588,38l-1.371-6H60v6ZM60,14H43V8H60Z" style="fill:#231f20"/><rect x="7.172" y="10" width="5.657" height="2" transform="translate(-4.849 10.293) rotate(-45)" style="fill:#231f20"/><rect x="13.586" y="11" width="2.828" height="2" transform="translate(-4.092 14.121) rotate(-45)" style="fill:#231f20"/><rect x="52.586" y="27" width="2.828" height="2" transform="translate(-3.983 46.385) rotate(-45)" style="fill:#231f20"/><rect x="8" y="21" width="14" height="2" style="fill:#231f20"/><rect x="24" y="21" width="2" height="2" style="fill:#231f20"/><rect x="7" y="26" width="8" height="2" style="fill:#231f20"/><rect x="17" y="26" width="2" height="2" style="fill:#231f20"/><rect x="21" y="26" width="2" height="2" style="fill:#231f20"/><path d="M26,30H17v2h9a1,1,0,0,1,0,2H22a1,1,0,0,0-1,1v2h2V36h3a3,3,0,0,0,0-6Z" style="fill:#231f20"/></g></svg>
