<svg height="464pt" viewBox="0 -8 464 464" width="464pt" xmlns="http://www.w3.org/2000/svg"><path d="m16 104h432c8.835938 0 16 7.164062 16 16v312c0 8.835938-7.164062 16-16 16h-432c-8.835938 0-16-7.164062-16-16v-312c0-8.835938 7.164062-16 16-16zm0 0" fill="#ffd5a7"/><g fill="#b39575"><path d="m40 160h-16v-16c.011719-8.832031 7.167969-15.988281 16-16h16v16h-16zm0 0"/><path d="m440 160h-16v-16h-16v-16h16c8.832031.011719 15.988281 7.167969 16 16zm0 0"/><path d="m56 424h-16c-8.832031-.011719-15.988281-7.167969-16-16v-16h16v16h16zm0 0"/><path d="m424 424h-16v-16h16v-16h16v16c-.011719 8.832031-7.167969 15.988281-16 16zm0 0"/><path d="m96 256h16v16h-16zm0 0"/><path d="m128 256h208v16h-208zm0 0"/><path d="m352 256h16v16h-16zm0 0"/><path d="m144 224h16v16h-16zm0 0"/><path d="m176 224h112v16h-112zm0 0"/><path d="m304 224h16v16h-16zm0 0"/><path d="m56 368h16v16h-16zm0 0"/><path d="m88 368h32v16h-32zm0 0"/><path d="m136 368h16v16h-16zm0 0"/><path d="m312 368h16v16h-16zm0 0"/><path d="m344 368h32v16h-32zm0 0"/><path d="m392 368h16v16h-16zm0 0"/><path d="m168 288h16v16h-16zm0 0"/><path d="m200 288h64v16h-64zm0 0"/><path d="m280 288h16v16h-16zm0 0"/></g><path d="m184 344h16c4.417969 0 8 3.582031 8 8v16c0 4.417969-3.582031 8-8 8h-16c-4.417969 0-8-3.582031-8-8v-16c0-4.417969 3.582031-8 8-8zm0 0" fill="#56965d"/><path d="m200 384h-16c-8.832031-.011719-15.988281-7.167969-16-16v-16c.011719-8.832031 7.167969-15.988281 16-16h16c8.832031.011719 15.988281 7.167969 16 16v16c-.011719 8.832031-7.167969 15.988281-16 16zm-16-32v16h16v-16zm0 0" fill="#73c97c"/><path d="m264 344h16c4.417969 0 8 3.582031 8 8v16c0 4.417969-3.582031 8-8 8h-16c-4.417969 0-8-3.582031-8-8v-16c0-4.417969 3.582031-8 8-8zm0 0" fill="#993e37"/><path d="m280 384h-16c-8.832031-.011719-15.988281-7.167969-16-16v-16c.011719-8.832031 7.167969-15.988281 16-16h16c8.832031.011719 15.988281 7.167969 16 16v16c-.011719 8.832031-7.167969 15.988281-16 16zm-16-32v16h16v-16zm0 0" fill="#ff675b"/><path d="m226.621094 155.703125-15.710938 37.929687c-1.128906 2.722657-3.667968 4.605469-6.601562 4.898438-2.9375.289062-5.796875-1.058594-7.4375-3.511719l-4.765625-7.113281c-1.796875-2.683594-5.03125-4.023438-8.199219-3.398438l-8.398438 1.664063c-2.894531.570313-5.871093-.496094-7.738281-2.777344-1.871093-2.28125-2.335937-5.40625-1.207031-8.132812l15.710938-37.925781zm0 0" fill="#e6bb43"/><path d="m281.726562 137.335938 15.710938 37.925781c1.128906 2.726562.664062 5.851562-1.207031 8.132812-1.867188 2.28125-4.84375 3.347657-7.738281 2.777344l-8.398438-1.664063c-3.167969-.625-6.402344.714844-8.199219 3.398438l-4.765625 7.113281c-1.644531 2.453125-4.5 3.800781-7.4375 3.511719-2.933594-.292969-5.472656-2.175781-6.601562-4.902344l-15.710938-37.925781zm0 0" fill="#e6bb43"/><path d="m312 80c0 44.183594-35.816406 80-80 80s-80-35.816406-80-80 35.816406-80 80-80 80 35.816406 80 80zm0 0" fill="#ffd04a"/><path d="m222.460938 106.835938c-5.179688.011718-10.222657-1.660157-14.367188-4.761719l-20.890625-15.675781 9.59375-12.796876 20.898437 15.675782c3.191407 2.371094 7.640626 2.054687 10.460938-.75l38.1875-38.183594 11.3125 11.3125-38.1875 38.1875c-4.515625 4.496094-10.636719 7.007812-17.007812 6.992188zm0 0" fill="#cca63b"/></svg>