<?xml version="1.0" encoding="utf-8"?>
<!-- Generator: Adobe Illustrator 22.0.1, SVG Export Plug-In . SVG Version: 6.00 Build 0)  -->
<svg xmlns="http://www.w3.org/2000/svg" xmlns:xlink="http://www.w3.org/1999/xlink" version="1.1" id="Layer_1" x="0px" y="0px" viewBox="0 0 256 256" style="enable-background:new 0 0 256 256;" xml:space="preserve" width="512" height="512">
<style type="text/css">
	.st0{fill:#3A312A;}
	.st1{fill:#D7E057;}
	.st2{fill:#F16C7A;}
	.st3{fill:#FCE8CB;}
	.st4{fill:#87796F;}
	.st5{fill:#8AC6DD;}
	.st6{fill:#CE4E61;}
	.st7{fill:#6CA8BF;}
	.st8{fill:#B9C239;}
	.st9{fill:#DECAAD;}
	.st10{fill:#695B51;}
	.st11{fill-rule:evenodd;clip-rule:evenodd;fill:#FCE8CB;}
	.st12{fill:#F5978A;}
	.st13{fill:#68A8BC;}
	.st14{fill:#B9BC39;}
	.st15{fill:#6B5B51;}
	.st16{fill:#D34E5C;}
	.st17{fill-rule:evenodd;clip-rule:evenodd;fill:#87796F;}
	.st18{fill-rule:evenodd;clip-rule:evenodd;fill:#F16C7A;}
</style>
<g>
	<g>
		<g>
			<rect x="116.258" y="195.621" class="st4" width="23.548" height="26.323"/>
		</g>
	</g>
	<g>
		<g>
			<path class="st0" d="M139.806,194.12h-23.548c-0.829,0-1.5,0.672-1.5,1.5v26.323c0,0.828,0.671,1.5,1.5,1.5h23.548     c0.829,0,1.5-0.672,1.5-1.5V195.62C141.306,194.792,140.635,194.12,139.806,194.12z M138.306,220.443h-20.548V197.12h20.548     V220.443z"/>
		</g>
	</g>
	<g>
		<g>
			<path class="st4" d="M145.587,221.943h-35.109c-9.632,0-17.44,7.808-17.44,17.44h69.99     C163.027,229.751,155.219,221.943,145.587,221.943z"/>
		</g>
	</g>
	<g>
		<g>
			<path class="st0" d="M145.587,220.443h-35.109c-10.444,0-18.94,8.497-18.94,18.94c0,0.828,0.671,1.5,1.5,1.5h69.99     c0.829,0,1.5-0.672,1.5-1.5C164.527,228.94,156.03,220.443,145.587,220.443z M94.607,237.884     c0.759-8.089,7.587-14.44,15.871-14.44h35.109c8.283,0,15.111,6.352,15.87,14.44H94.607z"/>
		</g>
	</g>
	<g>
		<g>
			<path class="st4" d="M224.753,16.503H31.311c-10.096,0-18.279,8.184-18.279,18.279v142.559c0,10.095,8.184,18.279,18.279,18.279     h193.441c10.095,0,18.279-8.184,18.279-18.279V34.782C243.032,24.687,234.848,16.503,224.753,16.503z"/>
		</g>
	</g>
	<g>
		<g>
			<path class="st0" d="M224.753,15.003h-46.585c-0.829,0-1.5,0.672-1.5,1.5s0.671,1.5,1.5,1.5h46.585     c9.252,0,16.779,7.527,16.779,16.779v142.559c0,9.252-7.527,16.779-16.779,16.779H31.312c-9.252,0-16.779-7.527-16.779-16.779     V34.782c0-9.252,7.527-16.779,16.779-16.779h132.583c0.829,0,1.5-0.672,1.5-1.5s-0.671-1.5-1.5-1.5H31.312     c-10.906,0-19.779,8.873-19.779,19.779v142.559c0,10.906,8.873,19.779,19.779,19.779h193.441     c10.906,0,19.779-8.873,19.779-19.779V34.782C244.532,23.876,235.659,15.003,224.753,15.003z"/>
		</g>
	</g>
	<g>
		<g>
			<path class="st1" d="M216.582,30.027h-177.1c-6.9,0-12.49,5.6-12.49,12.5v127.07c0,1.41,0.23,2.77,0.67,4.04     c1.67,4.92,6.33,8.46,11.82,8.46h177.1c6.9,0,12.49-5.6,12.49-12.5V42.527C229.072,35.627,223.482,30.027,216.582,30.027z"/>
		</g>
	</g>
	<g>
		<g>
			<path class="st0" d="M216.582,28.527h-177.1c-7.714,0-13.99,6.28-13.99,14v33.479c0,0.828,0.671,1.5,1.5,1.5s1.5-0.672,1.5-1.5     V42.527c0-6.065,4.93-11,10.99-11h177.1c6.06,0,10.99,4.935,10.99,11v127.069c0,6.065-4.93,11-10.99,11h-177.1     c-4.709,0-8.889-2.991-10.402-7.451c-0.39-1.124-0.587-2.318-0.587-3.549V90.881c0-0.828-0.671-1.5-1.5-1.5s-1.5,0.672-1.5,1.5     v78.716c0,1.565,0.253,3.09,0.75,4.522c1.924,5.669,7.245,9.478,13.24,9.478h177.1c7.714,0,13.99-6.28,13.99-14V42.527     C230.572,34.808,224.296,28.527,216.582,28.527z"/>
		</g>
	</g>
	<g>
		<g>
			<rect x="129.232" y="197.123" class="st10" width="9.07" height="23.32"/>
		</g>
	</g>
	<g>
		<g>
			<path class="st10" d="M145.582,223.443h-9.07c8.29,0,15.12,6.35,15.87,14.44h9.07     C160.702,229.793,153.872,223.443,145.582,223.443z"/>
		</g>
	</g>
	<g>
		<g>
			<path class="st2" d="M175.987,48.943h-95.91c-5.548,0-10.045,4.497-10.045,10.045v95.91c0,5.548,4.497,10.045,10.045,10.045     h95.91c5.548,0,10.045-4.497,10.045-10.045v-95.91C186.032,53.44,181.535,48.943,175.987,48.943z"/>
		</g>
	</g>
	<g>
		<g>
			<path class="st0" d="M175.987,47.443h-95.91c-6.366,0-11.545,5.179-11.545,11.545v95.91c0,6.366,5.179,11.545,11.545,11.545     h95.91c6.366,0,11.545-5.179,11.545-11.545v-95.91C187.532,52.622,182.353,47.443,175.987,47.443z M184.532,154.898     c0,4.712-3.833,8.545-8.545,8.545h-95.91c-4.712,0-8.545-3.833-8.545-8.545v-95.91c0-4.712,3.833-8.545,8.545-8.545h95.91     c4.712,0,8.545,3.833,8.545,8.545V154.898z"/>
		</g>
	</g>
	<g>
		<g>
			<path class="st5" d="M170.049,112.818c-3.626-3.609-8.602-5.413-14.929-5.413c-4.242,0-7.935,0.856-11.081,2.565     c-3.147,1.711-5.473,4.13-6.977,7.259c-1.505,3.13-2.257,6.457-2.257,9.979s0.752,6.849,2.257,9.978     c1.505,3.129,3.83,5.55,6.977,7.259c3.146,1.71,6.84,2.565,11.081,2.565c6.327,0,11.303-1.804,14.929-5.412     c3.625-3.608,5.438-8.405,5.438-14.39C175.487,121.224,173.674,116.426,170.049,112.818z M159.018,136.544     c-0.889,1.232-2.189,1.848-3.899,1.848c-1.711,0-2.993-0.616-3.848-1.848c-1.369-1.915-2.052-4.993-2.052-9.234     c0-4.241,0.684-7.319,2.052-9.234c0.854-1.265,2.137-1.898,3.848-1.898c1.71,0,3.009,0.616,3.899,1.847     c1.368,1.949,2.053,5.045,2.053,9.286C161.071,131.552,160.386,134.63,159.018,136.544z M121.26,86.525     c0-5.984-1.814-10.773-5.438-14.365c-3.626-3.591-8.585-5.386-14.878-5.386c-4.276,0-7.977,0.846-11.107,2.54     c-3.129,1.693-5.455,4.113-6.977,7.259c-1.522,3.146-2.283,6.463-2.283,9.952c0,3.523,0.761,6.858,2.283,10.004     c1.521,3.146,3.848,5.565,6.977,7.259c3.13,1.693,6.831,2.54,11.107,2.54c6.292,0,11.252-1.796,14.878-5.388     C119.447,97.35,121.26,92.545,121.26,86.525z M104.792,95.862c-0.856,1.266-2.138,1.898-3.848,1.898     c-1.711,0-3.01-0.632-3.899-1.898c-1.369-1.915-2.052-4.993-2.052-9.234c0-4.241,0.683-7.319,2.052-9.235     c0.889-1.231,2.188-1.846,3.899-1.846c1.71,0,2.992,0.615,3.848,1.846c1.367,1.949,2.052,5.028,2.052,9.235     C106.844,90.869,106.159,93.947,104.792,95.862z M144.431,66.774l-43.332,80.339h10.726l43.449-80.339H144.431z"/>
		</g>
	</g>
	<g>
		<g>
			<path class="st0" d="M106.013,96.733c1.568-2.196,2.331-5.502,2.331-10.105c0-4.564-0.76-7.866-2.32-10.09     c-1.132-1.63-2.889-2.491-5.08-2.491c-2.181,0-3.95,0.854-5.119,2.475c-1.569,2.195-2.331,5.501-2.331,10.106     c0,4.606,0.763,7.912,2.324,10.096c1.165,1.659,2.938,2.536,5.126,2.536C103.144,99.26,104.904,98.375,106.013,96.733z      M98.266,94.989c-1.176-1.645-1.772-4.458-1.772-8.361s0.596-6.717,1.768-8.356c0.603-0.836,1.455-1.225,2.683-1.225     c1.597,0,2.258,0.687,2.62,1.208c1.181,1.684,1.78,4.501,1.78,8.373c0,3.901-0.596,6.715-1.794,8.394     c-0.571,0.845-1.399,1.238-2.606,1.238C99.726,96.26,98.876,95.859,98.266,94.989z M116.878,102.006     c3.903-3.867,5.882-9.075,5.882-15.48c0-6.372-1.979-11.563-5.882-15.431c-3.9-3.862-9.261-5.82-15.934-5.82     c-4.508,0-8.485,0.915-11.82,2.72c-3.397,1.837-5.959,4.504-7.614,7.925c-1.614,3.337-2.433,6.905-2.433,10.606     c0,3.734,0.818,7.32,2.432,10.657c1.653,3.419,4.215,6.086,7.614,7.926c3.337,1.805,7.314,2.72,11.82,2.72     C107.616,107.828,112.977,105.869,116.878,102.006z M84.21,95.876c-1.415-2.926-2.133-6.072-2.133-9.351     c0-3.245,0.718-6.374,2.133-9.3c1.375-2.843,3.509-5.062,6.341-6.593c2.892-1.564,6.389-2.358,10.393-2.358     c5.854,0,10.505,1.666,13.822,4.951c3.36,3.329,4.994,7.68,4.994,13.3c0,5.653-1.633,10.021-4.994,13.35     c-3.319,3.286-7.969,4.953-13.822,4.953c-4.002,0-7.499-0.794-10.392-2.358C87.678,100.914,85.604,98.758,84.21,95.876z      M171.107,111.754c-3.899-3.881-9.278-5.849-15.987-5.849c-4.473,0-8.442,0.924-11.798,2.747     c-3.415,1.857-5.976,4.524-7.612,7.927c-1.596,3.319-2.406,6.895-2.406,10.629s0.81,7.31,2.405,10.627     c1.637,3.405,4.198,6.073,7.613,7.929c3.353,1.822,7.322,2.746,11.797,2.746c6.709,0,12.088-1.968,15.987-5.849     c3.902-3.884,5.88-9.083,5.88-15.453S175.009,115.639,171.107,111.754z M168.991,140.534c-3.317,3.302-7.984,4.976-13.871,4.976     c-3.969,0-7.456-0.802-10.365-2.383c-2.89-1.57-4.964-3.726-6.342-6.592c-1.399-2.908-2.109-6.047-2.109-9.327     s0.709-6.419,2.109-9.328c1.376-2.863,3.451-5.02,6.341-6.592c2.911-1.581,6.398-2.383,10.365-2.383     c5.887,0,10.554,1.674,13.871,4.975c3.362,3.348,4.997,7.707,4.997,13.328S172.352,137.188,168.991,140.534z M156.562,66.007     c-0.271-0.454-0.76-0.732-1.289-0.732h-10.842c-0.551,0-1.059,0.303-1.32,0.788l-43.332,80.339     c-0.251,0.465-0.238,1.027,0.032,1.48c0.271,0.454,0.76,0.731,1.288,0.731h10.726c0.551,0,1.057-0.302,1.319-0.786l43.449-80.339     C156.844,67.023,156.833,66.46,156.562,66.007z M110.93,145.613h-7.318l41.714-77.339h7.431L110.93,145.613z M155.12,114.678     c-2.2,0-3.96,0.885-5.068,2.526c-1.569,2.197-2.332,5.503-2.332,10.106c0,4.604,0.763,7.91,2.32,10.089     c1.13,1.631,2.887,2.492,5.08,2.492c2.18,0,3.949-0.854,5.12-2.475c1.569-2.197,2.332-5.503,2.332-10.106     c0-4.598-0.76-7.917-2.336-10.163C159.068,115.531,157.299,114.678,155.12,114.678z M157.802,135.667     c-0.603,0.835-1.456,1.225-2.683,1.225c-1.597,0-2.257-0.686-2.627-1.219c-1.176-1.646-1.773-4.46-1.773-8.362     c0-3.901,0.597-6.715,1.796-8.395c0.57-0.845,1.398-1.238,2.604-1.238c1.227,0,2.079,0.39,2.671,1.209     c1.182,1.685,1.781,4.519,1.781,8.424C159.571,131.212,158.975,134.025,157.802,135.667z"/>
		</g>
	</g>
	<g>
		<g>
			<path class="st3" d="M228.219,134.28h-0.108c-4.598,0-8.325,3.726-8.325,8.325v-5.694c0-4.599-3.727-8.325-8.325-8.325h-0.108     c-4.598,0-8.325,3.727-8.325,8.325v-5.694c0-4.599-3.727-8.325-8.325-8.325h-0.108c-4.598,0-8.325,3.726-8.325,8.325v9.475     l-0.008-0.008V100.45c0-4.599-3.727-8.325-8.325-8.325h-0.108c-4.599,0-8.325,3.727-8.325,8.325v59.862     c0,3.21-2.6,5.81-5.81,5.81h-18.926c-6.481,0-11.735,5.254-11.735,11.728c0,3.241,1.311,6.172,3.433,8.294     c2.129,2.122,5.061,3.434,8.302,3.434h14.644c6.033,0,11.403,3.842,13.348,9.56l3.881,11.388     c0.347-0.046,0.702-0.069,1.065-0.069h53.067c0.162,0,0.316,0.007,0.471,0.007l0.625-2.461     c3.032-11.928,4.591-24.181,4.668-36.487c0-0.1,0.008-0.193,0.008-0.293v-28.617C236.544,138.006,232.817,134.28,228.219,134.28z     "/>
		</g>
	</g>
	<g>
		<g>
			<path class="st0" d="M228.218,132.78h-0.108c-2.691,0-5.132,1.087-6.908,2.846c-0.632-4.813-4.76-8.54-9.742-8.54h-0.108     c-2.691,0-5.132,1.087-6.908,2.846c-0.632-4.813-4.76-8.54-9.742-8.54h-0.108c-2.653,0-5.063,1.057-6.832,2.771V100.45     c0-5.418-4.408-9.825-9.825-9.825h-0.108c-5.418,0-9.825,4.407-9.825,9.825v59.862c0,2.376-1.934,4.31-4.31,4.31h-18.926     c-7.298,0-13.235,5.934-13.235,13.228c0,3.536,1.376,6.858,3.875,9.356c2.505,2.496,5.829,3.871,9.36,3.871h14.644     c5.397,0,10.19,3.433,11.928,8.543l3.881,11.388c0.209,0.614,0.785,1.017,1.419,1.017c0.065,0,0.131-0.004,0.198-0.013     c0.283-0.038,0.575-0.057,0.868-0.057h53.067l0.471,0.008c0.686,0,1.285-0.466,1.454-1.131l0.625-2.461     c3.05-11.997,4.636-24.395,4.716-36.941l0.005-28.824C238.044,137.188,233.636,132.78,228.218,132.78z M235.04,171.309     l-0.005,0.196c-0.077,12.21-1.631,24.365-4.621,36.128l-0.336,1.322H177.69l-3.511-10.302     c-2.151-6.326-8.086-10.576-14.768-10.576h-14.644c-2.732,0-5.304-1.064-7.241-2.994c-1.931-1.931-2.994-4.499-2.994-7.233     c0-5.64,4.591-10.228,10.235-10.228h18.926c4.031,0,7.31-3.279,7.31-7.31V100.45c0-3.764,3.062-6.825,6.825-6.825h0.108     c3.763,0,6.825,3.062,6.825,6.825v40.233c0,0.381,0.152,0.756,0.413,1.034c0.421,0.448,1.074,0.597,1.646,0.368     c0.572-0.226,0.948-0.779,0.948-1.395v-9.475c0-3.764,3.062-6.825,6.825-6.825h0.108c3.764,0,6.825,3.062,6.825,6.825v5.694     c0,0.828,0.671,1.5,1.5,1.5c0.829,0,1.5-0.672,1.5-1.5c0-3.764,3.062-6.825,6.825-6.825h0.108c3.763,0,6.825,3.062,6.825,6.825     v5.694c0,0.828,0.671,1.5,1.5,1.5c0.829,0,1.5-0.672,1.5-1.5c0-3.764,3.062-6.825,6.825-6.825h0.108     c3.763,0,6.825,3.062,6.825,6.825L235.04,171.309z"/>
		</g>
	</g>
	<g>
		<g>
			<path class="st5" d="M230.77,210.452h-53.066c-4.837,0-8.758,3.921-8.758,8.758v20.104h70.583V219.21     C239.528,214.373,235.607,210.452,230.77,210.452z"/>
		</g>
	</g>
	<g>
		<g>
			<path class="st0" d="M230.769,208.952h-53.065c-5.657,0-10.259,4.602-10.259,10.258v20.104c0,0.828,0.671,1.5,1.5,1.5h70.583     c0.829,0,1.5-0.672,1.5-1.5V219.21C241.028,213.554,236.426,208.952,230.769,208.952z M238.028,237.814h-67.583V219.21     c0-4.002,3.256-7.258,7.259-7.258h53.065c4.003,0,7.259,3.256,7.259,7.258V237.814z"/>
		</g>
	</g>
	<g>
		<g>
			<path class="st4" d="M224.89,218.276c-3.649,0-6.607,2.958-6.607,6.606c0,3.649,2.958,6.607,6.607,6.607s6.607-2.958,6.607-6.607     C231.496,221.234,228.539,218.276,224.89,218.276z"/>
		</g>
	</g>
	<g>
		<g>
			<path class="st0" d="M224.89,216.776c-4.47,0-8.106,3.637-8.106,8.106c0,4.471,3.637,8.107,8.106,8.107     c4.47,0,8.107-3.637,8.107-8.107C232.997,220.413,229.36,216.776,224.89,216.776z M224.89,229.99     c-2.816,0-5.106-2.291-5.106-5.107c0-2.815,2.29-5.106,5.106-5.106c2.816,0,5.107,2.291,5.107,5.106     C229.997,227.699,227.706,229.99,224.89,229.99z"/>
		</g>
	</g>
	<g>
		<g>
			<path class="st9" d="M228.222,135.783h-0.11c-3.77,0-6.83,3.06-6.83,6.82c0,0.74-0.53,1.35-1.24,1.47v27.24l-0.01,0.19     c-0.07,12.21-1.63,24.37-4.62,36.13l-0.33,1.32h15l0.33-1.32c2.99-11.76,4.55-23.92,4.62-36.13l0.01-0.19v-28.71     C235.042,138.843,231.982,135.783,228.222,135.783z"/>
		</g>
	</g>
	<g>
		<g>
			<path class="st13" d="M230.772,211.953h-15c3.26,0,6.02,2.16,6.94,5.12c0.69-0.2,1.42-0.3,2.18-0.3c4.47,0,8.1,3.64,8.1,8.11     s-3.63,8.11-8.1,8.11c-0.64,0-1.26-0.07-1.86-0.22v5.04h15v-18.6C238.032,215.203,234.772,211.953,230.772,211.953z"/>
		</g>
	</g>
	<g>
		<g>
			<path class="st8" d="M216.582,31.523h-15c6.06,0,10.99,4.94,10.99,11v84.62c4.47,0.51,8.05,4.03,8.63,8.48     c1.66-1.64,3.89-2.68,6.37-2.82v-90.28C227.572,36.463,222.642,31.523,216.582,31.523z"/>
		</g>
	</g>
</g>
</svg>
